<?xml version="1.0" encoding="utf-8"?>
<!-- Generator: Adobe Illustrator 26.0.3, SVG Export Plug-In . SVG Version: 6.00 Build 0)  -->
<svg version="1.1" id="Layer_1" xmlns="http://www.w3.org/2000/svg" xmlns:xlink="http://www.w3.org/1999/xlink" x="0px" y="0px"
	 viewBox="0 0 281.1 109.1" style="enable-background:new 0 0 281.1 109.1;" xml:space="preserve">
<style type="text/css">
	.st0{opacity:0.7;}
	.st1{fill:#FFFFFF;}
	.st2{fill:#FCEE21;}
</style>
<g class="st0">
	<path class="st1" d="M17.7,108.6V73.5h12.2c3.8,0,6.9,0.8,9.4,2.3c2.5,1.6,4.4,3.7,5.7,6.3c1.3,2.7,1.9,5.6,1.9,8.8
		c0,3.6-0.7,6.7-2.1,9.3c-1.4,2.6-3.3,4.7-5.9,6.1c-2.5,1.5-5.5,2.2-9,2.2H17.7z M42.3,91c0-2.6-0.5-5-1.5-7c-1-2-2.4-3.6-4.2-4.8
		c-1.8-1.2-4.1-1.7-6.8-1.7h-7.7v27.2h7.7c2.7,0,5-0.6,6.8-1.8c1.8-1.2,3.2-2.8,4.2-4.9C41.9,95.9,42.3,93.6,42.3,91z"/>
	<path class="st1" d="M50.2,101.2c0-1.6,0.5-3.1,1.4-4.3c0.9-1.2,2.2-2.1,3.9-2.8c1.6-0.7,3.6-1,5.7-1c1.2,0,2.4,0.1,3.7,0.3
		c1.3,0.2,2.4,0.5,3.4,0.8v-1.9c0-1.9-0.6-3.5-1.8-4.6c-1.2-1.1-2.9-1.7-5-1.7c-1.4,0-2.8,0.3-4.1,0.8c-1.3,0.5-2.7,1.2-4.1,2.2
		L51.6,86c1.7-1.2,3.4-2,5-2.6c1.7-0.6,3.4-0.9,5.2-0.9c3.3,0,5.9,0.9,7.8,2.7c1.9,1.8,2.9,4.3,2.9,7.6v10.8c0,0.5,0.1,0.9,0.3,1.2
		c0.2,0.2,0.6,0.4,1.1,0.4v3.4c-0.4,0.1-0.8,0.1-1.1,0.1c-0.3,0-0.6,0-0.8,0c-1,0-1.8-0.3-2.3-0.8c-0.5-0.6-0.8-1.2-0.9-1.8
		l-0.1-1.6c-1.1,1.5-2.6,2.6-4.4,3.4c-1.8,0.8-3.6,1.2-5.4,1.2c-1.7,0-3.2-0.4-4.6-1.1c-1.4-0.7-2.4-1.7-3.2-2.9
		C50.5,104,50.2,102.7,50.2,101.2z M67,103c0.4-0.5,0.7-0.9,0.9-1.4c0.2-0.5,0.3-0.9,0.3-1.2v-3.2c-1-0.4-2.1-0.7-3.2-0.9
		c-1.1-0.2-2.2-0.3-3.3-0.3c-2.2,0-4,0.4-5.4,1.3c-1.4,0.9-2.1,2-2.1,3.5c0,0.8,0.2,1.6,0.7,2.4c0.4,0.8,1.1,1.4,2,1.9
		c0.9,0.5,2,0.7,3.2,0.7c1.4,0,2.6-0.3,3.9-0.8C65.3,104.5,66.2,103.8,67,103z"/>
	<path class="st1" d="M88.4,109.1c-2.1,0-4.2-0.4-6-1.1c-1.9-0.7-3.5-1.8-4.8-3.2l1.7-3.1c1.5,1.4,3,2.4,4.5,3
		c1.5,0.6,3,0.9,4.5,0.9c1.8,0,3.2-0.3,4.4-1c1.1-0.7,1.7-1.6,1.7-3c0-0.9-0.3-1.7-0.9-2.1c-0.6-0.5-1.4-0.8-2.4-1.2
		c-1.1-0.3-2.3-0.7-3.8-1.1c-1.8-0.5-3.3-1.1-4.5-1.7c-1.2-0.6-2.1-1.3-2.8-2.2c-0.6-0.9-0.9-2-0.9-3.3c0-1.6,0.4-3,1.3-4.1
		c0.9-1.1,2-2,3.5-2.6c1.5-0.6,3.2-0.9,5.1-0.9c1.9,0,3.6,0.3,5.2,0.9c1.5,0.6,2.9,1.5,4,2.6l-2,3c-1-1.1-2.1-1.8-3.4-2.3
		c-1.2-0.5-2.6-0.8-4.1-0.8c-0.9,0-1.8,0.1-2.6,0.3c-0.9,0.2-1.6,0.6-2.1,1.1c-0.6,0.5-0.8,1.3-0.8,2.3c0,0.8,0.2,1.5,0.7,1.9
		c0.4,0.5,1.1,0.9,2,1.2c0.9,0.3,1.9,0.7,3.2,1.1c1.9,0.6,3.6,1.1,5.1,1.7c1.4,0.6,2.5,1.3,3.3,2.2c0.8,0.9,1.2,2.1,1.2,3.7
		c0,2.4-0.9,4.3-2.8,5.7C93.9,108.4,91.5,109.1,88.4,109.1z"/>
	<path class="st1" d="M126.1,108.6h-4.4V94.3c0-2.6-0.5-4.6-1.4-5.9c-0.9-1.3-2.3-2-4-2c-1.1,0-2.3,0.3-3.4,0.9s-2.1,1.4-3,2.4
		c-0.9,1-1.5,2.1-1.9,3.4v15.5h-4.4V72.5h4.4v16c1-1.8,2.4-3.3,4.2-4.3c1.8-1.1,3.7-1.6,5.7-1.6c1.5,0,2.8,0.3,3.9,0.8
		c1,0.5,1.9,1.3,2.5,2.3c0.6,1,1.1,2.1,1.4,3.4c0.3,1.3,0.4,2.7,0.4,4.2V108.6z"/>
	<path class="st1" d="M146.1,109.1c-2,0-3.8-0.5-5.5-1.5c-1.6-1-3-2.3-3.9-3.9v4.8h-3.9V72.5h4.4v15.6c1.1-1.7,2.4-3,4-4.1
		c1.6-1,3.4-1.5,5.5-1.5c1.8,0,3.4,0.4,4.8,1.1c1.4,0.7,2.6,1.7,3.6,3c1,1.3,1.8,2.7,2.3,4.3c0.5,1.6,0.8,3.2,0.8,5
		c0,1.8-0.3,3.5-0.9,5.1c-0.6,1.6-1.5,3-2.6,4.2c-1.1,1.2-2.4,2.2-3.9,2.9C149.5,108.8,147.9,109.1,146.1,109.1z M145,105.3
		c1.3,0,2.5-0.3,3.6-0.8c1.1-0.5,2-1.2,2.8-2.1c0.8-0.9,1.4-1.9,1.8-3c0.4-1.1,0.6-2.3,0.6-3.5c0-1.7-0.4-3.2-1.1-4.7
		c-0.7-1.5-1.7-2.7-3-3.5c-1.3-0.9-2.7-1.3-4.4-1.3c-1.2,0-2.4,0.3-3.4,0.8c-1.1,0.6-2,1.3-2.8,2.2c-0.8,0.9-1.5,1.9-2,3v7.4
		c0.2,0.8,0.5,1.6,1,2.3c0.5,0.7,1.2,1.3,1.9,1.8c0.8,0.5,1.6,0.9,2.4,1.2C143.4,105.2,144.3,105.3,145,105.3z"/>
	<path class="st1" d="M175,109.1c-1.9,0-3.7-0.4-5.3-1.1c-1.6-0.7-3-1.7-4.1-2.9c-1.2-1.2-2-2.6-2.7-4.2c-0.6-1.6-0.9-3.3-0.9-5.1
		c0-1.8,0.3-3.5,0.9-5.1c0.6-1.6,1.5-3,2.7-4.2c1.2-1.2,2.5-2.2,4.1-2.9c1.6-0.7,3.4-1.1,5.3-1.1c1.9,0,3.7,0.4,5.2,1.1
		c1.6,0.7,3,1.7,4.1,2.9c1.2,1.2,2.1,2.6,2.7,4.2c0.6,1.6,0.9,3.3,0.9,5.1c0,1.8-0.3,3.5-0.9,5.1c-0.6,1.6-1.5,3-2.7,4.2
		c-1.2,1.2-2.5,2.2-4.1,2.9C178.7,108.7,176.9,109.1,175,109.1z M166.4,95.9c0,1.8,0.4,3.4,1.2,4.8c0.8,1.4,1.8,2.6,3.1,3.4
		c1.3,0.8,2.7,1.2,4.3,1.2c1.6,0,3-0.4,4.3-1.3c1.3-0.8,2.3-2,3.1-3.4c0.8-1.5,1.2-3.1,1.2-4.8c0-1.8-0.4-3.4-1.2-4.8
		c-0.8-1.4-1.8-2.6-3.1-3.4c-1.3-0.8-2.7-1.3-4.3-1.3c-1.6,0-3,0.4-4.3,1.3s-2.3,2-3.1,3.5C166.8,92.5,166.4,94.1,166.4,95.9z"/>
	<path class="st1" d="M191.3,101.2c0-1.6,0.5-3.1,1.4-4.3c0.9-1.2,2.2-2.1,3.9-2.8c1.6-0.7,3.6-1,5.7-1c1.2,0,2.4,0.1,3.7,0.3
		c1.3,0.2,2.4,0.5,3.4,0.8v-1.9c0-1.9-0.6-3.5-1.8-4.6c-1.2-1.1-2.9-1.7-5-1.7c-1.4,0-2.8,0.3-4.1,0.8c-1.3,0.5-2.7,1.2-4.1,2.2
		l-1.6-3.1c1.7-1.2,3.4-2,5-2.6c1.7-0.6,3.4-0.9,5.2-0.9c3.3,0,5.9,0.9,7.8,2.7c1.9,1.8,2.9,4.3,2.9,7.6v10.8c0,0.5,0.1,0.9,0.3,1.2
		c0.2,0.2,0.6,0.4,1.1,0.4v3.4c-0.4,0.1-0.8,0.1-1.1,0.1c-0.3,0-0.6,0-0.8,0c-1,0-1.8-0.3-2.3-0.8c-0.5-0.6-0.8-1.2-0.9-1.8
		l-0.1-1.6c-1.1,1.5-2.6,2.6-4.4,3.4c-1.8,0.8-3.6,1.2-5.4,1.2c-1.7,0-3.2-0.4-4.6-1.1c-1.4-0.7-2.4-1.7-3.2-2.9
		C191.7,104,191.3,102.7,191.3,101.2z M208.1,103c0.4-0.5,0.7-0.9,0.9-1.4c0.2-0.5,0.3-0.9,0.3-1.2v-3.2c-1-0.4-2.1-0.7-3.2-0.9
		c-1.1-0.2-2.2-0.3-3.3-0.3c-2.2,0-4,0.4-5.4,1.3c-1.4,0.9-2.1,2-2.1,3.5c0,0.8,0.2,1.6,0.7,2.4c0.4,0.8,1.1,1.4,2,1.9
		c0.9,0.5,2,0.7,3.2,0.7c1.4,0,2.6-0.3,3.9-0.8C206.4,104.5,207.4,103.8,208.1,103z"/>
	<path class="st1" d="M234.3,86.6c-2.2,0-4.1,0.6-5.8,1.7c-1.7,1.1-2.8,2.5-3.5,4.4v15.9h-4.4V82.9h4.1v5.8c0.9-1.8,2.1-3.2,3.5-4.3
		c1.5-1.1,3-1.7,4.6-1.9c0.3,0,0.6,0,0.8,0s0.4,0,0.6,0V86.6z"/>
	<path class="st1" d="M236.5,95.8c0-2.4,0.5-4.6,1.5-6.7c1-2,2.4-3.6,4.2-4.8c1.8-1.2,3.8-1.8,6.1-1.8c2.1,0,3.9,0.5,5.6,1.6
		c1.6,1.1,2.9,2.4,3.9,4V72.5h4.4v31.2c0,0.5,0.1,0.9,0.3,1.2c0.2,0.2,0.6,0.4,1.1,0.4v3.4c-0.8,0.1-1.5,0.2-1.9,0.2
		c-0.9,0-1.6-0.3-2.3-0.9c-0.6-0.6-1-1.3-1-2v-2.2c-1,1.6-2.4,3-4.1,3.9c-1.7,1-3.5,1.4-5.3,1.4c-1.8,0-3.4-0.4-4.9-1.1
		c-1.5-0.7-2.8-1.7-3.9-2.9c-1.1-1.2-2-2.7-2.6-4.2S236.5,97.6,236.5,95.8z M257.7,99.6v-7.3c-0.4-1.1-1-2.1-1.9-3
		c-0.9-0.9-1.9-1.6-3-2.2c-1.1-0.5-2.2-0.8-3.3-0.8c-1.3,0-2.4,0.3-3.5,0.8c-1,0.5-1.9,1.3-2.7,2.2c-0.7,0.9-1.3,1.9-1.7,3.1
		c-0.4,1.1-0.6,2.3-0.6,3.6c0,1.3,0.2,2.5,0.7,3.6c0.4,1.1,1.1,2.2,1.9,3c0.8,0.9,1.7,1.6,2.8,2.1c1.1,0.5,2.2,0.7,3.5,0.7
		c0.8,0,1.6-0.1,2.4-0.4c0.8-0.3,1.6-0.7,2.4-1.2c0.8-0.5,1.4-1.1,1.9-1.8C257.2,101.1,257.5,100.4,257.7,99.6z"/>
</g>
<g>
	<path d="M801.5-234.2v-47.1h16.3c5,0,9.3,1.1,12.6,3.2c3.4,2.1,5.9,4.9,7.6,8.5c1.7,3.6,2.5,7.5,2.5,11.8c0,4.8-0.9,8.9-2.8,12.5
		c-1.9,3.5-4.5,6.3-7.9,8.2c-3.4,1.9-7.4,2.9-12.1,2.9H801.5z M834.5-257.8c0-3.5-0.7-6.7-2-9.4c-1.3-2.7-3.2-4.9-5.7-6.4
		c-2.5-1.5-5.5-2.3-9.1-2.3h-10.4v36.5h10.4c3.6,0,6.7-0.8,9.2-2.4c2.5-1.6,4.4-3.8,5.6-6.6C833.9-251.3,834.5-254.4,834.5-257.8z"
		/>
	<path d="M845.4-244.2c0-2.2,0.6-4.1,1.9-5.7c1.3-1.6,3-2.8,5.2-3.7c2.2-0.9,4.8-1.3,7.7-1.3c1.5,0,3.2,0.1,4.9,0.4s3.3,0.6,4.6,1.1
		v-2.5c0-2.6-0.8-4.7-2.4-6.2c-1.6-1.5-3.8-2.3-6.8-2.3c-1.9,0-3.7,0.3-5.5,1c-1.7,0.7-3.6,1.7-5.5,3l-2.1-4.1
		c2.3-1.5,4.5-2.7,6.8-3.5c2.3-0.8,4.6-1.2,7-1.2c4.4,0,7.9,1.2,10.5,3.7c2.6,2.4,3.8,5.8,3.8,10.2v14.5c0,0.7,0.1,1.2,0.4,1.5
		c0.3,0.3,0.8,0.5,1.4,0.6v4.5c-0.6,0.1-1.1,0.2-1.5,0.2c-0.4,0-0.8,0.1-1,0.1c-1.4,0-2.4-0.4-3.1-1.1c-0.7-0.8-1.1-1.5-1.2-2.4
		l-0.1-2.2c-1.5,1.9-3.5,3.5-5.9,4.5c-2.4,1.1-4.8,1.6-7.2,1.6c-2.3,0-4.4-0.5-6.2-1.4c-1.8-0.9-3.2-2.2-4.2-3.8
		C845.9-240.4,845.4-242.2,845.4-244.2z M867.9-241.7c0.5-0.6,1-1.2,1.3-1.9c0.3-0.6,0.5-1.2,0.5-1.6v-4.3c-1.4-0.5-2.8-0.9-4.3-1.2
		c-1.5-0.3-3-0.4-4.4-0.4c-3,0-5.4,0.6-7.2,1.7c-1.8,1.2-2.8,2.7-2.8,4.8c0,1.1,0.3,2.2,0.9,3.2c0.6,1,1.5,1.9,2.7,2.5
		c1.2,0.7,2.6,1,4.3,1c1.8,0,3.5-0.4,5.2-1.1C865.6-239.7,866.9-240.6,867.9-241.7z"/>
	<path d="M896.7-233.5c-2.9,0-5.6-0.5-8.1-1.4c-2.5-1-4.7-2.4-6.5-4.3l2.3-4.1c2,1.9,4,3.2,6,4c2,0.8,4,1.2,6.1,1.2
		c2.4,0,4.3-0.4,5.8-1.3c1.5-0.9,2.3-2.2,2.3-4c0-1.3-0.4-2.2-1.2-2.8c-0.8-0.6-1.9-1.1-3.3-1.5c-1.4-0.4-3.1-0.9-5-1.4
		c-2.4-0.7-4.4-1.4-6-2.2c-1.6-0.8-2.9-1.8-3.7-3c-0.8-1.2-1.3-2.7-1.3-4.5c0-2.2,0.6-4,1.7-5.6c1.1-1.5,2.7-2.7,4.7-3.5
		c2-0.8,4.3-1.2,6.9-1.2c2.6,0,4.9,0.4,7,1.2c2.1,0.8,3.9,2,5.4,3.5l-2.7,4c-1.4-1.4-2.9-2.5-4.5-3.2c-1.6-0.7-3.5-1-5.5-1
		c-1.2,0-2.4,0.1-3.5,0.4s-2.1,0.8-2.9,1.5c-0.8,0.7-1.1,1.7-1.1,3.1c0,1.1,0.3,2,0.9,2.6c0.6,0.6,1.5,1.2,2.7,1.6
		c1.2,0.4,2.6,0.9,4.3,1.4c2.6,0.7,4.9,1.5,6.8,2.2c1.9,0.7,3.4,1.7,4.5,2.9c1.1,1.2,1.6,2.8,1.6,4.9c0,3.2-1.2,5.8-3.7,7.6
		C904.1-234.5,900.8-233.5,896.7-233.5z"/>
	<path d="M947.3-234.2h-5.8v-19.2c0-3.5-0.6-6.1-1.9-7.9c-1.3-1.8-3.1-2.6-5.4-2.6c-1.5,0-3,0.4-4.5,1.2s-2.9,1.8-4,3.2
		c-1.2,1.3-2,2.9-2.5,4.6v20.7h-5.8v-48.4h5.8v21.4c1.4-2.5,3.2-4.4,5.6-5.8c2.4-1.4,4.9-2.1,7.7-2.1c2.1,0,3.8,0.4,5.2,1.1
		c1.4,0.7,2.5,1.7,3.4,3.1c0.8,1.3,1.4,2.8,1.8,4.6c0.4,1.7,0.6,3.6,0.6,5.7V-234.2z"/>
	<path d="M974.2-233.5c-2.7,0-5.2-0.7-7.4-2c-2.2-1.3-4-3.1-5.2-5.2v6.5h-5.2v-48.4h5.8v21c1.5-2.3,3.3-4.1,5.4-5.4
		c2.1-1.4,4.6-2.1,7.4-2.1c2.4,0,4.5,0.5,6.4,1.5c1.9,1,3.5,2.3,4.9,4c1.3,1.7,2.4,3.6,3.1,5.7c0.7,2.1,1.1,4.4,1.1,6.7
		c0,2.4-0.4,4.7-1.2,6.8c-0.8,2.1-2,4-3.5,5.7c-1.5,1.6-3.2,2.9-5.2,3.9S976.5-233.5,974.2-233.5z M972.7-238.6c1.7,0,3.3-0.3,4.8-1
		c1.5-0.7,2.7-1.6,3.8-2.8c1.1-1.2,1.9-2.5,2.5-4.1c0.6-1.5,0.9-3.1,0.9-4.7c0-2.2-0.5-4.3-1.4-6.3c-1-2-2.3-3.6-4-4.8
		c-1.7-1.2-3.7-1.8-5.9-1.8c-1.6,0-3.2,0.4-4.6,1.1c-1.4,0.7-2.7,1.7-3.7,2.9c-1.1,1.2-2,2.5-2.7,4v9.9c0.2,1.1,0.7,2.1,1.4,3
		c0.7,0.9,1.6,1.7,2.6,2.4c1,0.7,2.1,1.2,3.2,1.6C970.5-238.8,971.6-238.6,972.7-238.6z"/>
	<path d="M1012.9-233.5c-2.6,0-5-0.5-7.1-1.4c-2.1-0.9-4-2.2-5.5-3.9c-1.5-1.6-2.7-3.5-3.6-5.7c-0.8-2.2-1.3-4.4-1.3-6.8
		c0-2.4,0.4-4.7,1.3-6.9c0.8-2.2,2-4.1,3.6-5.7c1.5-1.6,3.4-2.9,5.5-3.9c2.1-0.9,4.5-1.4,7.1-1.4c2.6,0,4.9,0.5,7,1.4
		c2.1,0.9,4,2.2,5.5,3.9c1.6,1.6,2.8,3.5,3.6,5.7c0.8,2.2,1.3,4.4,1.3,6.9c0,2.4-0.4,4.6-1.3,6.8c-0.8,2.2-2,4.1-3.6,5.7
		c-1.5,1.6-3.4,2.9-5.5,3.9C1017.8-234,1015.5-233.5,1012.9-233.5z M1001.4-251.3c0,2.4,0.5,4.5,1.6,6.4c1,1.9,2.4,3.4,4.1,4.6
		c1.7,1.1,3.6,1.7,5.8,1.7c2.1,0,4.1-0.6,5.8-1.7c1.7-1.1,3.1-2.7,4.2-4.6c1-1.9,1.6-4.1,1.6-6.5c0-2.4-0.5-4.5-1.6-6.4
		c-1-1.9-2.4-3.5-4.2-4.6c-1.7-1.1-3.7-1.7-5.8-1.7c-2.1,0-4,0.6-5.8,1.7s-3.1,2.7-4.1,4.6C1001.9-255.8,1001.4-253.7,1001.4-251.3z
		"/>
	<path d="M1034.7-244.2c0-2.2,0.6-4.1,1.9-5.7c1.3-1.6,3-2.8,5.2-3.7c2.2-0.9,4.8-1.3,7.7-1.3c1.5,0,3.2,0.1,4.9,0.4
		c1.7,0.2,3.3,0.6,4.6,1.1v-2.5c0-2.6-0.8-4.7-2.4-6.2c-1.6-1.5-3.8-2.3-6.8-2.3c-1.9,0-3.7,0.3-5.5,1c-1.7,0.7-3.6,1.7-5.5,3
		l-2.1-4.1c2.3-1.5,4.5-2.7,6.8-3.5c2.3-0.8,4.6-1.2,7-1.2c4.4,0,7.9,1.2,10.5,3.7c2.6,2.4,3.8,5.8,3.8,10.2v14.5
		c0,0.7,0.1,1.2,0.4,1.5c0.3,0.3,0.8,0.5,1.4,0.6v4.5c-0.6,0.1-1.1,0.2-1.5,0.2c-0.4,0-0.8,0.1-1,0.1c-1.4,0-2.4-0.4-3.1-1.1
		c-0.7-0.8-1.1-1.5-1.2-2.4l-0.1-2.2c-1.5,1.9-3.5,3.5-5.9,4.5c-2.4,1.1-4.8,1.6-7.2,1.6c-2.3,0-4.4-0.5-6.2-1.4
		c-1.8-0.9-3.2-2.2-4.2-3.8C1035.3-240.4,1034.7-242.2,1034.7-244.2z M1057.3-241.7c0.5-0.6,1-1.2,1.3-1.9c0.3-0.6,0.5-1.2,0.5-1.6
		v-4.3c-1.4-0.5-2.8-0.9-4.3-1.2c-1.5-0.3-3-0.4-4.4-0.4c-3,0-5.4,0.6-7.2,1.7c-1.8,1.2-2.8,2.7-2.8,4.8c0,1.1,0.3,2.2,0.9,3.2
		c0.6,1,1.5,1.9,2.7,2.5c1.2,0.7,2.6,1,4.3,1c1.8,0,3.5-0.4,5.2-1.1S1056.3-240.6,1057.3-241.7z"/>
	<path d="M1092.5-263.7c-2.9,0-5.5,0.8-7.7,2.2c-2.2,1.4-3.8,3.4-4.7,5.9v21.4h-5.8v-34.4h5.4v7.8c1.2-2.4,2.8-4.3,4.7-5.8
		c2-1.5,4-2.3,6.2-2.5c0.4,0,0.8,0,1.1,0s0.6,0,0.8,0.1V-263.7z"/>
	<path d="M1096.1-251.3c0-3.2,0.7-6.2,2-8.9c1.3-2.7,3.2-4.9,5.6-6.5c2.4-1.6,5.1-2.4,8.1-2.4c2.8,0,5.3,0.7,7.5,2.2
		c2.2,1.5,3.9,3.2,5.2,5.3v-21h5.8v41.8c0,0.7,0.1,1.2,0.4,1.6c0.3,0.3,0.8,0.5,1.4,0.6v4.5c-1.1,0.2-2,0.3-2.6,0.3
		c-1.2,0-2.2-0.4-3-1.2c-0.9-0.8-1.3-1.7-1.3-2.7v-2.9c-1.4,2.2-3.2,4-5.5,5.2c-2.3,1.3-4.7,1.9-7.2,1.9c-2.4,0-4.6-0.5-6.6-1.4
		c-2-0.9-3.8-2.2-5.2-3.9c-1.5-1.7-2.6-3.6-3.5-5.7S1096.1-249,1096.1-251.3z M1124.5-246.3v-9.9c-0.5-1.5-1.4-2.8-2.6-4
		c-1.2-1.2-2.5-2.2-4-2.9c-1.5-0.7-3-1.1-4.4-1.1c-1.7,0-3.3,0.4-4.7,1.1c-1.4,0.7-2.6,1.7-3.6,2.9c-1,1.2-1.8,2.6-2.3,4.1
		c-0.5,1.5-0.8,3.1-0.8,4.8c0,1.7,0.3,3.3,0.9,4.9c0.6,1.5,1.4,2.9,2.5,4.1c1.1,1.2,2.3,2.1,3.8,2.8c1.4,0.7,3,1,4.7,1
		c1.1,0,2.2-0.2,3.3-0.6c1.1-0.4,2.2-0.9,3.2-1.6c1-0.7,1.9-1.5,2.6-2.5C1123.8-244.2,1124.2-245.2,1124.5-246.3z"/>
</g>
<g>
	<path d="M441.2-317.3h24.5l8.9,30l9-30h24.5l-16.4,46.4l7,19.9l20.9-66.3h29L512-220.1h-23.1l-14.2-34.8l-14.1,34.8h-23.1
		l-36.7-97.2h28.9l21.1,66.3l6.7-19.9L441.2-317.3z"/>
	<path d="M614.2-285.4c-3.1-1.8-5.9-3.3-8.5-4.4c-2.6-1.1-5.3-2.2-8.4-3.1c-3-0.9-6-1.4-8.9-1.4c-2.3,0-4.2,0.4-5.6,1.1
		c-1.5,0.7-2.2,1.9-2.2,3.7c0,1.6,0.7,2.9,2.2,3.9c1.5,1,3.5,1.9,6.2,2.7c2.7,0.8,5.9,1.8,9.7,3c6,1.8,11.2,3.9,15.6,6.2
		c4.4,2.4,7.8,5.4,10.1,9c2.4,3.7,3.6,8.5,3.6,14.6c0,5.8-1.1,10.7-3.1,14.6c-2.1,3.9-4.9,7.1-8.5,9.4c-3.6,2.4-7.5,4-11.9,5.1
		c-4.4,1-8.9,1.6-13.4,1.6c-4.7,0-9.5-0.5-14.6-1.4s-10-2.3-14.7-4c-4.7-1.7-9.1-3.7-13-6l11.5-23.4c3.6,2.2,7,4,10,5.3
		c3,1.4,6.4,2.6,10.1,3.7c3.7,1.1,7.4,1.6,11.2,1.6c2.9,0,5-0.4,6.1-1.1c1.1-0.7,1.7-1.7,1.7-2.9c0-1.9-1-3.4-3-4.4
		c-2-1-4.6-2-7.9-3c-3.2-1-6.8-2.1-10.7-3.3c-5.7-1.9-10.3-4.1-14-6.5c-3.7-2.4-6.3-5.3-8.1-8.6c-1.7-3.3-2.6-7.3-2.6-12
		c0-7.2,1.7-13.1,5.1-17.9c3.4-4.8,7.8-8.5,13.3-10.9c5.5-2.5,11.5-3.7,17.9-3.7c4.7,0,9.3,0.6,13.8,1.7c4.4,1.1,8.6,2.5,12.5,4.2
		c3.9,1.6,7.3,3.2,10.2,4.7L614.2-285.4z"/>
	<path d="M662.3-317.3h29.8l30.9,97.2H696l-5-19h-27.5l-5,19h-27.2L662.3-317.3z M686.3-256.9l-9-34.2l-9,34.2H686.3z"/>
</g>
<g>
	<path class="st1" d="M83,0.3h12L99.3,15l4.4-14.6h12l-8,22.6l3.4,9.7l10.2-32.3h14.2l-17.9,47.4h-11.3l-6.9-17l-6.9,17H81.2
		L63.3,0.3h14.1l10.3,32.3l3.3-9.7L83,0.3z"/>
	<path class="st1" d="M166,15.9c-1.5-0.9-2.9-1.6-4.1-2.2c-1.2-0.6-2.6-1.1-4.1-1.5c-1.5-0.4-2.9-0.7-4.3-0.7c-1.1,0-2,0.2-2.7,0.5
		c-0.7,0.4-1.1,0.9-1.1,1.8c0,0.8,0.4,1.4,1.1,1.9c0.7,0.5,1.7,0.9,3,1.3c1.3,0.4,2.9,0.9,4.7,1.5c2.9,0.9,5.5,1.9,7.6,3
		c2.1,1.1,3.8,2.6,4.9,4.4c1.2,1.8,1.7,4.2,1.7,7.1c0,2.8-0.5,5.2-1.5,7.1c-1,1.9-2.4,3.5-4.1,4.6c-1.7,1.1-3.7,2-5.8,2.5
		c-2.1,0.5-4.3,0.8-6.5,0.8c-2.3,0-4.6-0.2-7.1-0.7c-2.5-0.5-4.9-1.1-7.2-1.9c-2.3-0.8-4.4-1.8-6.3-2.9l5.6-11.4
		c1.8,1.1,3.4,1.9,4.9,2.6c1.5,0.7,3.1,1.3,4.9,1.8c1.8,0.5,3.6,0.8,5.4,0.8c1.4,0,2.4-0.2,3-0.5c0.6-0.4,0.8-0.8,0.8-1.4
		c0-0.9-0.5-1.6-1.5-2.2c-1-0.5-2.3-1-3.8-1.5c-1.6-0.5-3.3-1-5.2-1.6c-2.8-0.9-5-2-6.8-3.1c-1.8-1.2-3.1-2.6-3.9-4.2
		c-0.8-1.6-1.3-3.6-1.3-5.9c0-3.5,0.8-6.4,2.5-8.8c1.6-2.3,3.8-4.1,6.5-5.3c2.7-1.2,5.6-1.8,8.7-1.8c2.3,0,4.6,0.3,6.7,0.8
		c2.2,0.6,4.2,1.2,6.1,2c1.9,0.8,3.5,1.6,5,2.3L166,15.9z"/>
	<path class="st1" d="M188.2,0.3h14.6l15.1,47.4h-13.2l-2.5-9.3h-13.4l-2.5,9.3h-13.3L188.2,0.3z M199.9,29.8l-4.4-16.7l-4.4,16.7
		H199.9z"/>
</g>
<path class="st2" d="M0,60.3c90.1-2.1,191.1-2.2,281.1,0C191.1,62.4,90.1,62.4,0,60.3L0,60.3z"/>
</svg>
