<svg width="149" height="51" viewBox="0 0 149 51" fill="none" xmlns="http://www.w3.org/2000/svg">
<path d="M0.00634766 0.193454C6.44435 0.193454 12.8762 0.212776 19.3081 0.187012C20.2891 3.64584 21.2272 7.11755 22.1592 10.5893C14.777 10.6021 7.38859 10.5893 0.00634766 10.5957C0.00634766 7.13043 0.00634766 3.66516 0.00634766 0.193454Z" fill="white"/>
<path d="M27.7143 0.212776C34.1768 0.167689 40.6393 0.225658 47.1019 0.187012C47.0774 3.65228 47.1325 7.11755 47.0896 10.5764C39.689 10.615 32.2883 10.5828 24.8877 10.5957C25.8442 7.13687 26.7455 3.66516 27.7143 0.212776Z" fill="white"/>
<path d="M54.4226 2.46047C56.3049 0.328492 59.2848 0.0386461 61.8907 0C67.6297 0.0257641 73.3687 -0.0257635 79.1016 0.0257646C81.6461 0.141703 84.5892 0.521724 86.306 2.74387C87.9002 4.99823 87.6733 7.94177 87.6979 10.5955C82.5536 10.589 77.4032 10.6084 72.2589 10.589C71.9401 9.49406 71.284 8.16077 69.9658 8.46349C68.7885 8.23806 68.5003 9.74526 68.1938 10.5761C63.0372 10.6148 57.8807 10.5826 52.7303 10.5955C52.7487 7.84516 52.4666 4.62465 54.4226 2.46047Z" fill="white"/>
<path d="M93.3389 0.219145C101.972 0.18694 110.599 0.174055 119.232 0.225583C121.819 0.393049 124.879 0.676458 126.614 2.98234C128.245 5.13364 128.049 8.01921 128.043 10.6021C122.905 10.5892 117.76 10.5892 112.622 10.6021C112.224 8.56026 110.194 8.68264 108.637 8.68908C108.637 9.16572 108.625 10.119 108.618 10.5956C103.542 10.6021 98.4647 10.5827 93.394 10.6021C93.2959 7.14323 93.3818 3.68441 93.3389 0.219145Z" fill="white"/>
<path d="M133.72 0.225257C138.809 0.167288 143.905 0.212379 149 0.199497C149 3.66476 149 7.13003 149 10.5953C143.898 10.5824 138.803 10.6146 133.702 10.576C133.702 7.12359 133.683 3.6712 133.72 0.225257Z" fill="white"/>
<path d="M0.00634766 12.734C7.57867 12.734 15.1571 12.7275 22.7294 12.734C22.987 14.0737 23.2813 15.407 23.6246 16.7274C23.8515 15.3941 24.0784 14.0608 24.3236 12.7275C31.9143 12.7404 39.505 12.7147 47.0958 12.7469C47.0958 21.0171 47.1142 29.2938 47.0896 37.5641C42.534 37.5705 37.9783 37.5641 33.4165 37.5705C33.4043 30.8332 33.4472 24.1024 33.3981 17.3715C31.5403 24.0959 29.6948 30.8268 27.886 37.5641C24.9981 37.5576 22.104 37.5963 19.2161 37.5319C17.4196 30.7753 15.4269 24.0766 13.6917 17.3007C13.4894 24.0508 13.6549 30.8075 13.5936 37.5641C9.06248 37.5705 4.53748 37.5641 0.00634766 37.5641C0.00634766 29.2874 0.00634766 21.0107 0.00634766 12.734Z" fill="white"/>
<path d="M52.7366 12.7337C57.9115 12.7337 63.0803 12.7208 68.2553 12.7401C68.2737 17.2811 68.243 21.822 68.2614 26.3629C68.335 27.1809 68.2369 28.1406 68.8132 28.7912C69.8617 29.9441 72.1917 29.2485 72.069 27.4901C72.21 22.582 72.0752 17.6611 72.1303 12.7466C77.3175 12.7144 82.4986 12.7401 87.6858 12.7337C87.6735 18.157 87.7042 23.5868 87.6735 29.0101C87.6306 31.4062 87.3302 34.105 85.5888 35.8505C83.6268 37.5767 80.9228 37.757 78.4764 37.8537C72.7925 37.8665 67.1087 37.8601 61.4249 37.8537C59.144 37.7828 56.6791 37.4414 54.8581 35.8698C53.0922 34.1243 52.7979 31.3869 52.7366 28.9779C52.7305 23.561 52.7366 18.1506 52.7366 12.7337Z" fill="white"/>
<path d="M93.3386 12.747C98.44 12.7148 103.535 12.7405 108.63 12.7341C108.637 18.151 108.643 23.5743 108.624 28.9976C109.74 28.9397 110.936 29.1587 111.96 28.5661C112.647 27.5548 112.469 26.2795 112.524 25.1201C112.506 20.985 112.518 16.8499 112.512 12.7212C117.687 12.7598 122.862 12.7083 128.036 12.747C128.024 18.2476 128.067 23.7482 128.018 29.2488C127.914 31.3486 127.656 33.6674 126.234 35.2712C124.345 37.2615 121.482 37.4482 118.962 37.5642C110.421 37.5642 101.874 37.5771 93.3325 37.5578C93.3693 29.2875 93.3509 21.0172 93.3386 12.747Z" fill="white"/>
<path d="M133.702 12.7275C138.797 12.7404 143.899 12.7275 149 12.734C149 21.0107 149 29.2874 149 37.5641C143.899 37.5512 138.803 37.5963 133.702 37.5383C133.696 29.2681 133.702 20.9978 133.702 12.7275Z" fill="white"/>
<path d="M0 42.7171C0.748035 42.7171 1.5022 42.7171 2.25637 42.7235C2.73462 44.4562 3.2374 46.1888 3.77696 47.9021C4.21843 46.163 4.69668 44.4368 5.19333 42.7171C5.94749 42.7106 6.70779 42.7042 7.46196 42.6978C6.51771 45.3965 5.59187 48.1082 4.6231 50.807C4.02835 50.8134 3.42747 50.8134 2.82659 50.8199C1.9314 48.0953 0.895189 45.4352 0 42.7171Z" fill="white"/>
<path d="M8.02585 42.7362C8.7371 42.7233 9.45448 42.7169 10.1657 42.7104C10.178 45.4157 10.1657 48.1145 10.1719 50.8132C9.45448 50.8132 8.7371 50.8132 8.01972 50.8068C8.00133 48.1145 7.9952 45.4221 8.02585 42.7362Z" fill="white"/>
<path d="M11.7662 46.8457C10.687 45.5768 11.3492 43.2838 12.925 42.8458C14.3107 42.2533 15.7271 43.0262 17.0515 43.4191C16.7817 44.0246 16.5119 44.6364 16.236 45.2419C15.3101 44.9585 14.3782 44.7202 13.4278 44.5592C13.8938 46.2531 16.3586 45.6799 17.0576 47.2773C17.3703 48.3336 17.2415 49.7249 16.2544 50.3367C14.6234 51.4639 12.643 50.6524 10.9507 50.1564C11.2143 49.4479 11.4657 48.7394 11.711 48.0309C12.8208 48.5333 13.9857 48.9326 15.212 48.7716C14.231 47.8183 12.8146 47.6831 11.7662 46.8457Z" fill="white"/>
<path d="M18.1 42.7235C18.8112 42.7171 19.5225 42.7042 20.2337 42.6978C20.246 45.4094 20.2399 48.1146 20.2337 50.8263C19.5225 50.8199 18.8051 50.8134 18.0938 50.8134C18.0938 48.1146 18.0816 45.4223 18.1 42.7235Z" fill="white"/>
<path d="M23.5264 42.9874C26.0648 41.6798 29.2532 44.1403 28.9037 47.0581C28.8669 50.1498 25.0654 52.037 22.7661 50.1176C20.2952 48.4494 20.6998 43.9922 23.5264 42.9874ZM24.0108 44.9841C23.1647 45.7957 22.9562 47.4703 23.8575 48.327C24.7588 49.583 26.8803 48.5138 26.7148 47.0388C27.1317 45.4414 25.3352 43.9406 24.0108 44.9841Z" fill="white"/>
<path d="M48.2238 43.0197C50.9645 41.5319 54.4227 44.411 53.6992 47.5349C53.2884 50.6395 49.1619 52.0307 47.1385 49.6991C45.1703 47.8569 45.7835 44.0825 48.2238 43.0197ZM49.3704 44.6751C47.2857 45.39 47.9969 49.4672 50.284 48.8038C52.4606 48.2305 51.7555 44.0117 49.3704 44.6751Z" fill="white"/>
<path d="M54.6497 42.7169C56.5443 42.9101 59.1931 41.9697 60.3826 44.0566C61.2287 45.3512 60.591 46.9357 59.794 48.0565C60.309 48.9518 60.8118 49.86 61.3023 50.781C60.5175 50.8003 59.7326 50.8197 58.9478 50.839C58.3347 49.8535 57.8993 48.6619 56.8693 48.0565C56.8202 48.9775 56.7834 49.8922 56.765 50.8197C56.0538 50.8197 55.3487 50.8197 54.6436 50.8197C54.6497 48.1209 54.6374 45.4157 54.6497 42.7169ZM56.8325 44.6234C56.808 45.0228 56.765 45.815 56.7466 46.2143C57.1697 46.2723 58.0281 46.3947 58.4573 46.4527C58.9233 45.1323 58.071 44.4495 56.8325 44.6234Z" fill="white"/>
<path d="M64.3923 42.6978C65.1036 42.7042 65.8148 42.7171 66.5261 42.73C66.5445 45.4223 66.5322 48.1146 66.5322 50.8134C65.821 50.8134 65.1036 50.8199 64.3923 50.8263C64.3862 48.1146 64.3801 45.4094 64.3923 42.6978Z" fill="white"/>
<path d="M67.7955 42.7037C69.6104 42.781 71.6399 42.3624 73.2525 43.4895C75.1103 45.0096 75.1839 48.4234 73.3138 49.9692C71.7073 51.1608 69.641 50.7614 67.8016 50.8194C67.7893 48.1142 67.7955 45.4089 67.7955 42.7037ZM69.9844 44.5137C69.9231 46.008 69.9231 47.5087 69.9967 49.0095C71.364 49.0159 72.8968 47.9854 72.4492 46.3365C72.4676 44.913 70.99 44.694 69.9844 44.5137Z" fill="white"/>
<path d="M75.5395 42.6978C77.336 42.7106 79.1386 42.7106 80.9351 42.7042C80.9413 43.2001 80.9413 44.1856 80.9413 44.6816C79.8253 44.688 78.7094 44.7009 77.5874 44.7267C77.6364 44.9972 77.7223 45.5318 77.7652 45.7959C78.6726 45.783 79.5801 45.7701 80.4875 45.7637C80.4875 46.3756 80.4875 46.9875 80.4875 47.6058C79.5433 47.5994 78.6052 47.5994 77.6671 47.5994C77.6916 48.0116 77.7161 48.4303 77.7468 48.8554C78.8443 48.8489 79.9418 48.8489 81.0394 48.8489C81.0455 49.3449 81.0516 50.3304 81.0516 50.8199C79.2183 50.8199 77.385 50.8199 75.5517 50.8199C75.5211 48.1082 75.5517 45.403 75.5395 42.6978Z" fill="white"/>
<path d="M82.0201 42.7105C82.578 42.7105 83.1421 42.717 83.7001 42.7234C84.7056 44.0567 85.6867 45.4029 86.6861 46.7426C86.7229 45.39 86.7229 44.0438 86.7351 42.7041C87.2686 42.7105 88.3416 42.7363 88.875 42.7492C88.8873 45.4222 88.8873 48.1017 88.8811 50.7811C88.4642 50.8005 87.6426 50.8391 87.2318 50.8584C86.2017 49.5316 85.1655 48.2176 84.1415 46.8972C84.1477 48.2047 84.1599 49.5123 84.1722 50.8198C83.6326 50.8198 82.5474 50.8198 82.0078 50.8198C82.0262 48.1146 82.0139 45.4158 82.0201 42.7105Z" fill="white"/>
<path d="M96.8889 42.6978C97.6002 42.7042 98.3114 42.7171 99.0227 42.7235C99.0411 45.4223 99.0288 48.1146 99.0288 50.8134C98.3175 50.8134 97.6002 50.8199 96.8889 50.8263C96.8828 48.1146 96.8767 45.4094 96.8889 42.6978Z" fill="white"/>
<path d="M110.752 43.6572C112.487 42.0533 115.13 42.53 116.669 44.1853C116.166 44.6555 115.651 45.1128 115.136 45.5637C114.376 45.0098 113.156 44.1209 112.322 45.042C111.273 45.8278 111.353 47.9404 112.506 48.5845C113.333 49.3574 114.351 48.4557 115.069 47.9791C115.498 48.2625 116.35 48.8293 116.773 49.1127C115.553 50.5426 113.603 51.425 111.837 50.549C109.274 49.5249 108.539 45.4542 110.752 43.6572Z" fill="white"/>
<path d="M119.189 42.7234C119.839 42.7106 120.495 42.7041 121.157 42.7041C122.034 45.4158 122.929 48.1146 123.818 50.8262C123.101 50.8198 122.383 50.8198 121.672 50.8133C121.666 49.2417 120.464 48.8875 119.244 49.377C118.833 50.7232 117.92 51.232 116.503 50.9035C117.362 48.1661 118.269 45.4415 119.189 42.7234ZM120.115 47.96C121.182 47.8118 120.869 46.0341 120.188 45.5832C119.305 45.8988 119.06 47.6894 120.115 47.96Z" fill="white"/>
<path d="M135.836 42.9811C138.387 41.6865 141.599 44.0954 141.262 47.0454C141.268 50.3561 136.927 52.166 134.738 49.815C132.666 47.9278 133.267 44.0181 135.836 42.9811ZM136.431 44.9649C134.812 46.1243 135.793 49.5574 137.951 48.8102C140.244 47.9149 138.785 43.3289 136.431 44.9649Z" fill="white"/>
<path d="M29.7925 42.6266C32.2942 42.2015 33.0054 45.2996 34.5137 46.7424C34.526 45.3962 34.526 44.0501 34.5199 42.7103C35.0656 42.7039 36.1447 42.7039 36.6843 42.6975C36.6475 45.4027 36.7088 48.1143 36.6659 50.8196C36.2428 50.8196 35.3905 50.8196 34.9675 50.8196C33.968 49.4863 32.9257 48.1852 31.8895 46.8712C31.9079 48.1916 31.914 49.5056 31.9263 50.8196C31.3867 50.8196 30.3198 50.8196 29.7864 50.8131C29.7803 48.0886 29.7741 45.3576 29.7925 42.6266Z" fill="white"/>
<path d="M40.4122 42.7103C42.1597 42.7038 43.9133 42.7038 45.6669 42.7167C45.673 43.2062 45.6853 44.1853 45.6914 44.6748C44.6123 44.6877 43.5331 44.7006 42.4479 44.7199C42.4969 45.0355 42.595 45.6667 42.6441 45.9823C43.4779 45.9823 44.3118 45.9823 45.1518 45.9823C45.1457 46.4203 45.1334 47.2963 45.1212 47.7343C44.2689 47.7536 43.4105 47.7729 42.5521 47.8051C42.546 48.8035 42.5398 49.8083 42.5337 50.8131C41.9941 50.8131 40.9273 50.826 40.3877 50.826C40.4122 48.1207 40.4061 45.4155 40.4122 42.7103Z" fill="white"/>
<path d="M89.5923 42.7235C91.7812 42.7042 93.9701 42.7171 96.1591 42.6978C96.1529 43.2002 96.1468 44.2049 96.1407 44.7073C95.595 44.7009 94.5036 44.6816 93.964 44.6752C93.964 46.7234 93.964 48.7716 93.9763 50.8199C93.4367 50.8199 92.3576 50.8199 91.818 50.8199C91.8303 48.7781 91.8241 46.7298 91.8364 44.688C91.0884 44.688 90.3403 44.6816 89.5923 44.6816C89.5923 44.1921 89.5923 43.213 89.5923 42.7235Z" fill="white"/>
<path d="M100.341 42.7104C102.1 42.7039 103.86 42.7104 105.62 42.7104C105.614 43.2063 105.602 44.1983 105.595 44.6942C104.565 44.6878 103.535 44.6813 102.505 44.6749C102.499 45.0098 102.481 45.6861 102.474 46.0275C103.314 45.9824 104.154 45.9438 104.994 45.9116C105.013 46.3818 105.05 47.3157 105.068 47.7795C104.222 47.773 103.376 47.7666 102.53 47.7601C102.493 48.7778 102.456 49.8019 102.425 50.8196C101.904 50.8196 100.862 50.8132 100.341 50.8132C100.328 48.1144 100.328 45.4156 100.341 42.7104Z" fill="white"/>
<path d="M106.423 42.7104C106.957 42.7104 108.03 42.7104 108.563 42.7104C108.545 45.4157 108.6 48.1145 108.557 50.8197C108.024 50.8197 106.963 50.8197 106.43 50.8132C106.417 48.1145 106.423 45.4092 106.423 42.7104Z" fill="white"/>
<path d="M123.113 42.7106C125.314 42.7106 127.516 42.7042 129.717 42.717C129.729 43.374 129.747 44.0374 129.76 44.7009C129.196 44.6944 128.067 44.688 127.503 44.688C127.516 46.7298 127.516 48.7716 127.497 50.8134C126.774 50.8134 126.056 50.8134 125.345 50.8069C125.351 48.7651 125.345 46.7233 125.351 44.6815C124.622 44.688 123.892 44.688 123.168 44.6944C123.156 44.1985 123.126 43.2066 123.113 42.7106Z" fill="white"/>
<path d="M130.459 42.7104C130.992 42.7104 132.059 42.7104 132.592 42.7104C132.598 45.4157 132.586 48.1145 132.605 50.8197C132.065 50.8197 130.986 50.8197 130.446 50.8197C130.465 48.1145 130.452 45.4157 130.459 42.7104Z" fill="white"/>
<path d="M142.139 42.6846C142.58 42.7039 143.457 42.7361 143.892 42.749C144.849 44.0887 145.848 45.4027 146.854 46.7038C146.848 45.3769 146.848 44.0501 146.86 42.7232C147.399 42.7168 148.466 42.7103 149 42.7039C148.994 45.422 149.012 48.1401 148.981 50.8647C148.546 50.8389 147.681 50.7809 147.252 50.7552C146.265 49.4605 145.266 48.1723 144.272 46.8777C144.279 48.1916 144.285 49.4992 144.279 50.8131C143.745 50.8131 142.684 50.8196 142.151 50.8196C142.133 48.1079 142.163 45.3962 142.139 42.6846Z" fill="white"/>
</svg>
